<svg width="29" height="125" viewBox="0 0 29 125" fill="none" xmlns="http://www.w3.org/2000/svg">
<path d="M13.3784 96.583L27.3878 96.583L27.3878 100.527L23.5384 100.59C26.315 102.42 28.2713 105.765 28.2713 110.466C28.2713 118.481 22.4656 124.602 14.1357 124.602C5.80571 124.602 -2.59293e-07 118.67 -6.39956e-07 109.961C-8.90974e-07 104.219 2.68199 98.4131 9.33963 96.9932L9.33963 103.272C6.94162 104.282 5.45863 106.68 5.45863 109.867C5.45863 114.789 9.0241 118.386 14.1357 118.386C19.2157 118.386 22.8127 114.757 22.8127 109.993C22.8127 107.343 21.6452 103.651 17.638 102.736L17.638 110.435L13.3784 110.435L13.3784 96.583Z" fill="white"/>
<path d="M28.2713 13.0629C28.2713 21.6452 22.4656 27.5771 14.1357 27.5771C5.80571 27.5771 -2.59293e-07 21.6452 -6.3444e-07 13.0629C-8.88215e-07 7.25715 2.58733 1.29367 10.3809 5.26828e-06L10.3809 6.02659C6.97317 7.16249 5.45863 9.78137 5.45863 13.0629C5.45863 17.7642 9.0241 21.3612 14.1357 21.3612C19.2157 21.3612 22.8127 17.7642 22.8127 13.0629C22.8127 9.78137 21.2981 7.16249 17.8589 6.02659L17.8589 4.94141e-06C25.684 1.29367 28.2713 7.19404 28.2713 13.0629Z" fill="white"/>
<path fill-rule="evenodd" clip-rule="evenodd" d="M17.9966 38.7152L17.9966 84.4668L13.2637 84.4668L13.2637 38.7152L17.9966 38.7152Z" fill="white"/>
</svg>
