<svg width="71" height="48" viewBox="0 0 71 48" fill="none" xmlns="http://www.w3.org/2000/svg">
<path d="M35.6981 0.892944C16.8379 0.892944 1.54492 10.6392 1.54492 22.6647C1.54492 34.6903 16.8379 45.3805 35.6981 45.3805C54.5583 45.3805 69.8513 34.6903 69.8513 22.6647C69.8513 10.6477 54.5669 0.892944 35.6981 0.892944Z" fill="#00B1EA"/>
<path d="M24.5868 15.9376C24.5698 15.9716 24.237 16.3118 24.4503 16.5925C24.9794 17.2643 26.6094 17.647 28.2565 17.2813C29.2379 17.0602 30.5009 16.0652 31.7128 15.0957C33.0355 14.0496 34.3498 13.0035 35.664 12.5868C37.0636 12.1446 37.9512 12.3317 38.5485 12.5103C39.1971 12.7059 39.9566 13.1311 41.177 14.0411C43.4641 15.759 52.6723 23.7618 54.2682 25.1481C55.5483 24.5698 61.6501 22.112 69.3905 20.411C68.7163 16.3033 66.2329 12.3827 62.4267 9.30402C57.1186 11.5237 50.206 12.8504 43.8652 9.77177C43.8311 9.76326 40.4004 8.13888 37.0209 8.22393C31.9944 8.34299 29.8097 10.5117 27.5055 12.8079L24.5868 15.9376Z" fill="white"/>
<path d="M53.8929 26.0242C53.7819 25.9307 43.0717 16.5841 40.6395 14.7641C39.2314 13.7181 38.4548 13.4459 37.6355 13.3439C37.2088 13.2928 36.62 13.3694 36.2018 13.4799C35.0753 13.7861 33.5989 14.7726 32.2847 15.8102C30.9278 16.8903 29.6477 17.9023 28.4615 18.166C26.9424 18.5062 25.0905 18.1065 24.2456 17.5366C23.9043 17.307 23.6653 17.0434 23.5458 16.7712C23.2301 16.0483 23.8104 15.47 23.9043 15.3765L26.8656 12.1872C27.207 11.8471 27.5568 11.5069 27.9067 11.1667C26.9509 11.2943 26.0719 11.5324 25.21 11.7705C24.1347 12.0682 23.1106 12.3573 22.0609 12.3573C21.6257 12.3573 19.2959 11.9746 18.8521 11.8556C16.1724 11.1242 13.1429 10.4183 9.63539 8.7854C5.42811 11.9066 2.68866 15.7337 1.87793 20.0285C2.48385 20.1901 4.06267 20.5473 4.47231 20.6408C13.9878 22.75 16.9491 24.9186 17.4867 25.3779C18.067 24.7315 18.9118 24.3233 19.8421 24.3233C20.8917 24.3233 21.8476 24.8506 22.4193 25.667C22.9655 25.2418 23.7166 24.8676 24.6894 24.8676C25.1332 24.8676 25.5855 24.9527 26.0463 25.1057C27.1216 25.4714 27.6763 26.1858 27.9579 26.8322C28.3164 26.6706 28.7601 26.5515 29.2807 26.5515C29.7927 26.5515 30.3304 26.6706 30.8595 26.9002C32.6175 27.6486 32.8906 29.3665 32.7285 30.6593C32.8565 30.6422 32.976 30.6422 33.104 30.6422C35.1863 30.6422 36.876 32.3262 36.876 34.4013C36.876 35.0391 36.7139 35.6429 36.4237 36.1787C36.987 36.4934 38.4292 37.2163 39.7008 37.0547C40.7078 36.9271 41.1003 36.587 41.2369 36.3914C41.3308 36.2553 41.4332 36.1022 41.3393 35.9916L38.6511 33.0235C38.6511 33.0235 38.2073 32.6068 38.3524 32.4452C38.506 32.2836 38.7791 32.5132 38.9669 32.6748C40.3323 33.8145 41.9964 35.5239 41.9964 35.5239C42.022 35.5409 42.133 35.762 42.756 35.8726C43.2851 35.9661 44.2238 35.9151 44.8809 35.3793C45.0431 35.2432 45.2052 35.0731 45.3503 34.903C45.3418 34.9116 45.3332 34.9201 45.3162 34.9286C46.0074 34.0526 45.2393 33.1681 45.2393 33.1681L42.1074 29.6642C42.1074 29.6642 41.6551 29.2475 41.8087 29.0859C41.9452 28.9413 42.2354 29.1624 42.4317 29.324C43.4216 30.149 44.8297 31.5522 46.1696 32.8619C46.4341 33.0575 47.6118 33.7804 49.1736 32.7599C50.1208 32.1391 50.3171 31.3736 50.283 30.8038C50.2147 30.0469 49.6173 29.5026 49.6173 29.5026L45.3333 25.2163C45.3333 25.2163 44.8809 24.8336 45.0431 24.638C45.1711 24.4764 45.4698 24.706 45.6575 24.8676C47.0229 26.0072 50.7097 29.3751 50.7097 29.3751C50.7609 29.4091 52.041 30.3191 53.6112 29.3155C54.1745 28.9583 54.5329 28.414 54.567 27.7847C54.6694 26.6706 53.8929 26.0242 53.8929 26.0242Z" fill="white"/>
<path d="M33.1295 31.4585C32.4638 31.45 31.7384 31.8413 31.6446 31.7902C31.5934 31.7562 31.6872 31.4926 31.747 31.3395C31.8152 31.1864 32.6857 28.567 30.5522 27.657C28.9222 26.9596 27.9237 27.742 27.5824 28.0992C27.497 28.1928 27.4544 28.1843 27.4458 28.0652C27.4117 27.589 27.1983 26.3133 25.7902 25.888C23.7762 25.2757 22.4875 26.6705 22.1547 27.1807C22.0096 26.0411 21.0368 25.1481 19.8505 25.1481C18.5619 25.1481 17.5122 26.1857 17.5122 27.4699C17.5122 28.7541 18.5534 29.8002 19.8505 29.8002C20.4735 29.8002 21.0453 29.5535 21.4635 29.1538C21.4805 29.1623 21.4805 29.1878 21.472 29.2303C21.3696 29.8087 21.1904 31.9008 23.3922 32.7513C24.2712 33.0914 25.0222 32.8363 25.6452 32.4026C25.8329 32.275 25.8585 32.326 25.8329 32.5046C25.7561 33.0404 25.8585 34.197 27.4714 34.8434C28.7003 35.3452 29.4343 34.8349 29.9122 34.3926C30.117 34.2055 30.1767 34.2311 30.1853 34.5287C30.245 36.0851 31.5422 37.3182 33.1124 37.3267C34.7339 37.3267 36.0481 36.017 36.0566 34.4011C36.0652 32.7683 34.7509 31.4756 33.1295 31.4585Z" fill="white"/>
<path d="M35.6982 0C16.4796 0 0.896484 10.1885 0.896484 22.6818C0.896484 23.005 0.896484 23.8979 0.896484 24.0085C0.896484 37.2672 14.5168 48 35.6982 48C57.0077 48 70.5 37.2672 70.5 24.0085C70.5 23.5493 70.5 23.2771 70.5 22.6818C70.5 10.18 54.9169 0 35.6982 0ZM68.9298 20.1644C61.3686 21.8398 55.7276 24.2721 54.311 24.9015C51.0083 22.0269 43.3789 15.4189 41.3136 13.871C40.136 12.9865 39.3252 12.5188 38.6169 12.3062C38.3011 12.2126 37.8573 12.1021 37.2941 12.1021C36.765 12.1021 36.2018 12.1956 35.6129 12.3827C34.2731 12.8079 32.9418 13.854 31.6617 14.8746L31.5934 14.9256C30.3986 15.8781 29.1526 16.8561 28.2139 17.0687C27.8042 17.1623 27.3861 17.2048 26.9679 17.2048C25.9183 17.2048 24.971 16.8987 24.6211 16.4479C24.5613 16.3714 24.604 16.2523 24.7406 16.0822L24.7576 16.0567L27.6592 12.9355C29.9378 10.6648 32.0798 8.53012 37.0295 8.41105C37.1149 8.41105 37.1917 8.41105 37.2771 8.41105C40.3579 8.41105 43.4301 9.7888 43.78 9.94188C46.6645 11.3451 49.6429 12.0595 52.6383 12.0595C55.7532 12.0595 58.9706 11.2941 62.3415 9.74628C65.8746 12.7229 68.2129 16.2863 68.9298 20.1644ZM35.6982 1.33522C45.8964 1.33522 55.0278 4.2523 61.1638 8.83628C58.194 10.112 55.3692 10.7583 52.6383 10.7583C49.8477 10.7583 47.057 10.0865 44.3432 8.76825C44.1981 8.70021 40.8016 7.10135 37.2685 7.10135C37.1747 7.10135 37.0808 7.10135 36.9869 7.10135C32.8308 7.1949 30.4925 8.66619 28.9222 9.95889C27.3946 9.99291 26.0719 10.3671 24.8942 10.6903C23.8445 10.9794 22.9399 11.2346 22.0609 11.2346C21.6939 11.2346 21.0453 11.2006 20.9856 11.2006C19.97 11.1665 14.8838 9.92488 10.8216 8.39405C16.949 4.0652 25.8244 1.33522 35.6982 1.33522ZM9.61824 9.30404C13.8597 11.0305 19.0142 12.3742 20.6442 12.4763C21.0965 12.5103 21.583 12.5613 22.0694 12.5613C23.1532 12.5613 24.2285 12.2636 25.2697 11.966C25.8841 11.7959 26.5668 11.6088 27.2837 11.4727C27.0959 11.6598 26.8997 11.8469 26.7119 12.0425L23.7591 15.2232C23.5287 15.4529 23.0252 16.0822 23.3581 16.8476C23.4861 17.1538 23.7591 17.4515 24.1346 17.7066C24.8344 18.1743 26.0975 18.4975 27.2666 18.4975C27.7104 18.4975 28.1286 18.455 28.5126 18.37C29.75 18.0978 31.0472 17.0602 32.4212 15.9717C33.5136 15.1042 35.0753 14.0071 36.2615 13.6839C36.5943 13.5904 37.0039 13.5393 37.3368 13.5393C37.4392 13.5393 37.5245 13.5393 37.6099 13.5563C38.395 13.6584 39.1545 13.922 40.52 14.9341C42.9437 16.7456 53.6624 26.0921 53.7648 26.1857C53.7733 26.1942 54.456 26.781 54.4048 27.759C54.3792 28.3033 54.072 28.7881 53.5514 29.1198C53.0906 29.4089 52.6212 29.5535 52.1433 29.5535C51.4265 29.5535 50.9315 29.2218 50.8974 29.1963C50.8547 29.1623 47.1851 25.8115 45.8367 24.6804C45.6233 24.5018 45.41 24.3402 45.2052 24.3402C45.0942 24.3402 44.9918 24.3912 44.9235 24.4678C44.7102 24.7314 44.9491 25.0886 45.2307 25.3267L49.5234 29.6215C49.5319 29.6301 50.061 30.1233 50.1208 30.7782C50.1549 31.4926 49.8135 32.0879 49.1052 32.5471C48.6017 32.8788 48.0896 33.0489 47.5861 33.0489C46.929 33.0489 46.4682 32.7512 46.3658 32.6747L45.7514 32.0709C44.6249 30.9653 43.4642 29.8257 42.6108 29.1198C42.406 28.9497 42.1841 28.7881 41.9708 28.7881C41.8684 28.7881 41.7745 28.8221 41.6977 28.9072C41.6038 29.0177 41.5355 29.2048 41.7745 29.528C41.8683 29.6556 41.9878 29.7661 41.9878 29.7661L45.1198 33.27C45.1454 33.304 45.7684 34.0354 45.1881 34.7668L45.0771 34.9029C44.9833 35.005 44.8809 35.0985 44.787 35.1836C44.2494 35.6173 43.541 35.6683 43.2594 35.6683C43.1058 35.6683 42.9607 35.6598 42.8327 35.6343C42.5255 35.5833 42.3121 35.4897 42.2183 35.3792L42.1756 35.3366C42.0049 35.158 40.4261 33.5592 39.1204 32.4706C38.9497 32.326 38.7363 32.1474 38.5145 32.1474C38.4035 32.1474 38.3097 32.1899 38.2329 32.275C37.9769 32.5556 38.3609 32.9809 38.5315 33.1339L41.2027 36.068C41.2027 36.0936 41.1686 36.1531 41.1003 36.2466C41.0064 36.3742 40.6821 36.6974 39.7092 36.8249C39.5898 36.842 39.4703 36.8505 39.3508 36.8505C38.3523 36.8505 37.2856 36.3657 36.7394 36.0765C36.9869 35.5493 37.1234 34.9709 37.1234 34.3926C37.1234 32.1984 35.3398 30.421 33.1466 30.421C33.1039 30.421 33.0527 30.421 33.0015 30.421C33.0698 29.4174 32.9332 27.5294 30.9789 26.696C30.4157 26.4578 29.861 26.3303 29.3148 26.3303C28.8881 26.3303 28.4785 26.4068 28.0944 26.5514C27.6933 25.769 27.0191 25.1992 26.1487 24.9015C25.6622 24.7314 25.1843 24.6549 24.7149 24.6549C23.9042 24.6549 23.1532 24.893 22.4876 25.3692C21.8475 24.5783 20.8832 24.1106 19.8676 24.1106C18.9801 24.1106 18.1267 24.4678 17.4866 25.0886C16.6588 24.4592 13.3561 22.3671 4.53194 20.3685C4.11377 20.275 3.158 20.0028 2.55209 19.8242C3.37136 15.8696 5.88887 12.2636 9.61824 9.30404ZM25.9865 32.1984L25.8926 32.1134H25.7988C25.722 32.1134 25.6366 32.1474 25.5257 32.224C25.0734 32.5386 24.6467 32.6917 24.2029 32.6917C23.964 32.6917 23.7164 32.6407 23.469 32.5471C21.4208 31.7562 21.583 29.8257 21.6854 29.2473C21.7024 29.1283 21.6683 29.0347 21.6 28.9752L21.4549 28.8561L21.3184 28.9837C20.9173 29.3664 20.3967 29.579 19.8505 29.579C18.6814 29.579 17.7256 28.6265 17.7256 27.4614C17.7256 26.2962 18.6814 25.3437 19.8505 25.3437C20.9088 25.3437 21.8134 26.1347 21.9414 27.1892L22.0182 27.759L22.334 27.2743C22.3681 27.2147 23.23 25.922 24.8088 25.922C25.1075 25.922 25.4147 25.9731 25.7305 26.0666C26.985 26.4493 27.1984 27.5889 27.2325 28.0567C27.2581 28.3288 27.4544 28.3459 27.4885 28.3459C27.5994 28.3459 27.6762 28.2778 27.736 28.2183C27.9749 27.9717 28.487 27.5634 29.2977 27.5634C29.6647 27.5634 30.0658 27.6485 30.4669 27.8271C32.4638 28.686 31.5592 31.2119 31.5507 31.2374C31.38 31.6541 31.3715 31.8412 31.5336 31.9518L31.6105 31.9858H31.6702C31.7555 31.9858 31.875 31.9518 32.0542 31.8838C32.3273 31.7902 32.7369 31.6456 33.1209 31.6456C34.6229 31.6626 35.8518 32.8873 35.8518 34.3671C35.8518 35.8639 34.6229 37.0801 33.1209 37.0801C31.6531 37.0801 30.4498 35.9405 30.3986 34.4862C30.3986 34.3586 30.3815 34.0269 30.0999 34.0269C29.989 34.0269 29.8866 34.095 29.7671 34.197C29.4428 34.4947 29.0331 34.8008 28.4272 34.8008C28.1541 34.8008 27.8555 34.7413 27.5483 34.6138C25.9951 33.9844 25.978 32.9213 26.0377 32.4961C26.0633 32.4111 26.0718 32.292 25.9865 32.1984ZM35.6982 44.0028C17.2135 44.0028 2.23633 34.4522 2.23633 22.6648C2.23633 22.1885 2.27044 21.7208 2.31311 21.253C2.45819 21.287 3.92604 21.6357 4.23327 21.7038C13.2452 23.7023 16.2236 25.7775 16.7271 26.1687C16.5564 26.5769 16.4711 27.0191 16.4711 27.4614C16.4711 29.3154 17.9816 30.8292 19.8505 30.8292C20.0554 30.8292 20.2687 30.8122 20.4736 30.7697C20.7552 32.1389 21.6512 33.168 23.0252 33.7038C23.4263 33.8568 23.8274 33.9334 24.2285 33.9334C24.4845 33.9334 24.7406 33.8994 24.9966 33.8398C25.2526 34.4777 25.8158 35.2771 27.0959 35.7959C27.5397 35.9745 27.992 36.068 28.4187 36.068C28.7686 36.068 29.1185 36.0085 29.4513 35.8809C30.0572 37.3607 31.5166 38.3473 33.1295 38.3473C34.2048 38.3473 35.2289 37.9135 35.9799 37.1396C36.6199 37.4968 37.9769 38.1432 39.3508 38.1432C39.53 38.1432 39.6922 38.1347 39.8629 38.1091C41.2198 37.939 41.8598 37.4033 42.15 36.995C42.2012 36.927 42.2524 36.8505 42.295 36.7654C42.6193 36.859 42.9692 36.9355 43.3789 36.9355C44.1213 36.9355 44.8382 36.6804 45.555 36.1616C46.2634 35.6513 46.7669 34.9199 46.8437 34.2991C46.8437 34.2906 46.8437 34.2821 46.8437 34.2736C47.0826 34.3246 47.3302 34.3501 47.5691 34.3501C48.3372 34.3501 49.0882 34.112 49.805 33.6442C51.1961 32.7342 51.435 31.5521 51.4094 30.7782C51.6569 30.8292 51.9044 30.8547 52.1519 30.8547C52.8687 30.8547 53.577 30.6421 54.2512 30.2084C55.1132 29.6641 55.6338 28.8221 55.7106 27.8441C55.7618 27.1807 55.5996 26.5089 55.2497 25.9305C57.571 24.9355 62.8791 23.005 69.126 21.6017C69.1516 21.9504 69.1687 22.3076 69.1687 22.6648C69.1687 34.4522 54.183 44.0028 35.6982 44.0028Z" fill="#2D3277"/>
</svg>
