<svg width="36" height="59" viewBox="0 0 36 59" fill="none" xmlns="http://www.w3.org/2000/svg">
<path fill-rule="evenodd" clip-rule="evenodd" d="M18 40.2273C13.9567 40.2273 10.6667 36.9186 10.6667 32.8523C10.6667 28.786 13.9567 25.4773 18 25.4773C22.0433 25.4773 25.3333 28.786 25.3333 32.8523C25.3333 36.9186 22.0433 40.2273 18 40.2273ZM18 14.75C8.05867 14.75 0 22.8545 0 32.8523V59H10.6667V49.383C12.9073 50.39 15.3873 50.9545 18 50.9545C27.9413 50.9545 36 42.8501 36 32.8523C36 22.8545 27.9413 14.75 18 14.75Z" fill="#373740"/>
<path fill-rule="evenodd" clip-rule="evenodd" d="M0 10.7266H10.6667V0H0V10.7266Z" fill="#00AFFF"/>
</svg>
