<svg width="154" height="48" viewBox="0 0 154 48" fill="none" xmlns="http://www.w3.org/2000/svg">
<path fill-rule="evenodd" clip-rule="evenodd" d="M90.9129 0.740809C90.0175 0.859137 88.7084 1.26557 88.3628 1.52795C87.3103 2.33052 84.8178 5.54081 82.9799 8.45785C82.5296 9.16782 81.6551 10.6906 81.0267 11.8328C79.7334 14.2045 79.1312 15.1923 77.8064 17.137L76.8691 18.5106L76.6649 18.0321C76.4031 17.4199 76.1151 16.3292 75.958 15.3878C75.8271 14.5903 75.6281 8.06685 75.7171 7.45978C75.7747 7.06878 75.6438 6.9556 75.2459 7.05849C74.6227 7.22312 74.2405 8.15946 73.6121 11.0714C73.0309 13.762 72.8948 14.7447 72.8476 16.7305C72.7796 19.3337 73.0414 21.1138 73.6959 22.4617C74.8584 24.8746 75.3244 25.528 76.5916 26.5312C77.487 27.236 77.7331 27.2977 78.5395 26.9839C79.1469 26.7472 79.8381 26.1659 80.4298 25.4045C83.4355 21.5048 84.2523 20.2083 86.4149 15.9331C86.881 15.0122 87.6716 13.5665 88.1796 12.7177L89.0959 11.1743L89.164 12.2186C89.2425 13.4328 89.1012 17.1421 88.9126 18.845C88.7503 20.2804 88.3157 22.5595 87.7292 25.0135C87.4884 26.0373 87.1847 27.5138 87.0642 28.2958C86.9438 29.0778 86.7134 30.508 86.5615 31.4752C86.2107 33.6771 86.2316 34.0939 86.7972 35.8739C87.2475 37.2939 87.3313 37.4173 88.2005 37.8135C88.6089 38.0038 88.6404 38.0038 89.0121 37.8546C89.4939 37.6643 89.7557 37.3402 90.2113 36.3833C90.892 34.9479 91.3004 33.4714 91.6669 31.1048C92.1068 28.2443 92.2482 27.4829 92.7299 25.3582C93.264 22.9813 93.5834 21.2476 93.7615 19.7813C93.9395 18.2894 93.9133 12.5325 93.7143 10.3048C93.6253 9.33759 93.5206 7.15624 93.4787 5.45335C93.4368 3.75046 93.374 2.17103 93.3373 1.93952C93.264 1.4302 93.1017 1.21927 92.7142 1.14724C92.5519 1.11637 92.3162 0.987754 92.1906 0.869426C91.9549 0.637915 91.8083 0.622481 90.9129 0.740809ZM21.1024 5.24756C21.0657 5.28358 20.7882 5.34531 20.4897 5.37618C20.186 5.41219 19.7619 5.49965 19.5419 5.57682C19.322 5.65399 18.9136 5.76718 18.6256 5.83406C17.9711 5.98325 17.7564 6.24049 17.4579 7.22312C17.3322 7.62956 17.2327 8.00512 17.2327 8.05142C17.2327 8.09772 17.0599 8.54531 16.8452 9.0392C16.6306 9.53309 16.0703 11.0251 15.599 12.3421C15.1277 13.6643 14.2061 16.1389 13.5568 17.8418C12.9075 19.5447 12.1483 21.582 11.8655 22.3691C11.2057 24.2263 10.546 25.7749 9.43063 28.1054C8.49856 30.0553 7.95922 31.0585 7.84402 31.0585C7.80737 31.0585 7.6241 30.5955 7.44083 30.0244C7.11094 29.0058 7.1057 28.9646 7.03239 26.9993C6.9905 25.9035 6.91196 24.4836 6.84912 23.8456C6.63967 21.5562 6.91196 16.1595 7.48272 11.3286C7.57697 10.5157 7.65552 9.46621 7.65552 8.99804V8.13888L7.37275 7.98968C7.0481 7.81476 6.41974 7.86621 6.08462 8.09258C5.69713 8.35496 4.83838 10.6701 3.30937 15.5627C1.8275 20.3164 1.37717 22.2765 1.01063 25.6103C0.717399 28.2907 0.795944 30.0501 1.28292 31.6141C1.63899 32.7562 3.44028 36.4038 4.0058 37.1241C4.16289 37.3247 4.42995 37.5923 4.60274 37.7157C4.77554 37.8443 5.10543 38.1119 5.33059 38.3074C5.8804 38.7858 6.36215 39.0071 6.8753 39.0071C7.47748 39.0122 9.57724 38.5698 10.0223 38.3485C10.5041 38.1067 11.3419 37.1601 12.0226 36.0694L12.5619 35.2103L12.7766 36.0128C13.0437 37.0624 13.3631 37.8392 14.1381 39.3157C15.0387 41.0341 15.3267 41.4765 15.7404 41.7646C15.9394 41.9035 16.2954 42.1916 16.5363 42.4077C16.7772 42.6238 17.0704 42.8244 17.1856 42.8553C17.5155 42.9427 18.2643 42.5517 18.6518 42.0939C19.4425 41.1575 21.249 36.6662 21.8093 34.2534C21.9925 33.4559 22.0344 33.0341 22.0397 32.0051C22.0449 30.6572 21.825 29.1653 21.516 28.4862C21.2176 27.8276 20.6573 28.0231 18.8403 29.4328C18.479 29.7157 18.17 29.9318 18.1543 29.9215C18.0496 29.8083 18.568 24.2624 18.8874 22.0964C19.1283 20.4553 19.1388 20.4347 20.0132 18.0733C20.3326 17.209 20.8772 15.7325 21.2123 14.791C21.5527 13.8495 22.0344 12.5273 22.2805 11.8482C22.9665 9.97554 23.2597 8.5556 23.2597 7.06878C23.2597 6.16846 23.1445 5.9421 22.6314 5.85464C22.401 5.81862 22.1601 5.68486 21.9611 5.48422C21.6574 5.19612 21.2595 5.08293 21.1024 5.24756ZM65.0246 6.03985C64.6371 6.17875 64.5481 6.33824 63.4327 9.0392C62.951 10.2122 62.1079 12.1363 61.5581 13.3247C58.6363 19.6939 58.1545 20.9492 56.8559 25.5948C56.4684 26.989 55.8924 28.9646 55.5835 29.9884C54.8347 32.4476 54.531 33.5588 54.1645 35.1485C53.5832 37.6746 52.9968 41.7646 53.0805 42.7215C53.1224 43.1743 53.5728 44.337 53.8555 44.6971C53.8974 44.7485 54.0754 45.0932 54.2587 45.4585C54.4891 45.9215 54.6829 46.189 54.8975 46.328C55.0703 46.436 55.3845 46.6881 55.5992 46.8836C56.0338 47.2746 56.1228 47.2952 56.5417 47.1099C56.924 46.9402 57.3062 46.4977 57.7932 45.6694C58.2174 44.9492 58.2907 44.8823 60.1915 43.3852C62.3122 41.7234 62.8201 41.3685 65.7001 39.5987C68.868 37.654 70.4389 36.4913 71.0411 35.6476C71.7218 34.7009 72.7534 32.2984 73.0466 30.9813C73.1828 30.364 73.2194 29.4173 73.1094 29.2424C73.0152 29.0932 71.8527 28.5067 71.5124 28.4398C71.1982 28.3781 69.1927 28.6662 68.8314 28.8308C68.7109 28.8874 68.2554 29.0161 67.8208 29.1189C67.3861 29.2218 66.8678 29.3813 66.6688 29.4739C66.098 29.7363 62.265 32.1955 60.5266 33.4096C60.1967 33.6411 59.9139 33.8109 59.8982 33.7955C59.8825 33.78 60.0134 33.2296 60.1862 32.5813C60.7727 30.4103 61.2754 28.0797 61.6943 25.6051C62.2231 22.4669 62.3959 21.7672 64.2967 14.9762C65.3073 11.3697 65.9619 8.42184 66.0509 7.08422C66.1033 6.29193 66.098 6.25592 65.8938 6.09129C65.6582 5.89579 65.4592 5.8855 65.0246 6.03985ZM44.5453 7.50094C42.4508 8.08743 40.6862 8.97747 37.7172 10.9427C34.4393 13.1138 32.5437 15.2952 30.6796 19.0456C28.805 22.8167 28.0876 25.6823 27.6897 30.971C27.5745 32.5196 27.6844 35.3749 27.9148 36.7022C28.1086 37.8289 28.627 39.0431 29.4805 40.355C29.7999 40.8489 30.8943 41.7132 31.6535 42.0733C32.4704 42.4591 33.9942 42.8501 35.1881 42.9788C37.8062 43.2617 39.8588 42.5157 43.5819 39.9228C46.0534 38.1993 47.0745 37.0932 48.4464 34.6649C49.368 33.0289 49.656 32.5968 50.9755 30.8733C52.9077 28.3472 54.3058 26.1813 55.0494 24.5659C55.7354 23.0636 55.8296 22.7601 55.8767 21.8392C55.9239 20.8771 55.8453 20.6816 55.3426 20.5633C55.196 20.5273 54.997 20.4296 54.9028 20.337C54.8085 20.2443 54.6148 20.1466 54.4629 20.1157C53.8922 19.9974 51.8134 20.0694 49.4046 20.2906C46.1215 20.5942 44.2783 20.7074 42.5974 20.7125C40.66 20.7228 38.7121 20.9183 37.8533 21.1961C37.6072 21.2733 37.0888 21.4122 36.7014 21.5048C35.874 21.6952 35.5965 21.9318 35.4132 22.6058C35.2457 23.2231 35.4551 24.1286 35.9944 25.1421C36.2248 25.5743 36.5966 26.2791 36.8218 26.7112C37.1203 27.2771 37.3349 27.5704 37.6072 27.7762C37.8167 27.9305 38.1885 28.2341 38.4293 28.4501C38.7645 28.7434 38.9477 28.8411 39.1729 28.8411C39.9007 28.8411 46.1477 27.1743 47.9804 26.49L48.3626 26.346L48.2003 26.562C46.6346 28.6714 46.4095 29.0161 45.4984 30.755C44.6082 32.4476 44.1526 33.1267 43.2991 34.0167C41.7073 35.6784 38.3508 38.1582 37.0365 38.6469C36.5862 38.8116 36.3872 38.8321 35.6279 38.7858C34.6016 38.7189 33.5543 38.5286 32.7689 38.2559C31.9154 37.9627 31.465 37.3916 31.2451 36.3215C31.0775 35.4881 31.0252 33.5948 31.1456 32.391C31.2975 30.8064 31.9101 27.0662 32.2138 25.8469C33.2873 21.546 35.3818 17.6771 37.9424 15.2849C38.8273 14.4566 41.1417 12.517 42.4351 11.5138C44.9433 9.57425 45.9906 9.0855 47.3782 9.20383C47.9856 9.25528 48.1113 9.23985 48.2631 9.10094C48.4726 8.90544 48.4988 8.59161 48.305 8.59161C48.2317 8.59161 47.9961 8.42698 47.7866 8.22634C47.5772 8.0257 47.1897 7.75303 46.9226 7.62441C46.5142 7.42891 46.3205 7.3929 45.645 7.39805C45.2104 7.41348 44.7129 7.45464 44.5453 7.50094Z" fill="white"/>
<path d="M108.607 32.5299C108.722 32.3652 108.889 32.1286 108.978 32.0154C109.224 31.7067 109.387 31.5318 109.717 31.2386C110.073 30.9196 110.151 30.8784 110.335 30.8836C110.612 30.8939 110.79 31.0945 110.785 31.398C110.785 31.5061 110.712 31.8045 110.602 32.1697C110.392 32.8591 110.345 33.0649 110.188 33.9652C110.062 34.6906 109.978 34.9839 109.848 35.164C109.769 35.272 109.753 35.2823 109.628 35.2874C109.523 35.2926 109.476 35.272 109.408 35.2103C109.251 35.0662 109.24 34.8398 109.334 33.7749C109.361 33.4714 109.382 33.2244 109.376 33.2193C109.371 33.2141 109.287 33.3016 109.183 33.4045C108.79 33.8109 108.319 33.8932 108.114 33.5948C107.989 33.4148 108.031 33.2244 108.256 32.9929C108.334 32.9003 108.491 32.6997 108.607 32.5299Z" fill="white"/>
<path fill-rule="evenodd" clip-rule="evenodd" d="M110.979 34.4591C110.926 34.1556 111.094 32.8334 111.251 32.2881C111.345 31.9742 111.434 31.8662 111.628 31.8611C111.743 31.8559 111.769 31.8713 111.827 31.9434C111.884 32.0154 111.9 32.0205 111.916 31.9794C112.031 31.6913 112.256 31.5164 112.492 31.5164C112.953 31.5164 113.183 32.0617 113.099 32.9569C113.026 33.7337 112.769 34.3202 112.293 34.8244C112.062 35.0662 112.042 35.0816 111.89 35.1279C111.659 35.1948 111.445 35.1434 111.267 34.9736C111.109 34.8193 111.01 34.6392 110.979 34.4591ZM111.843 33.5691C111.837 33.4456 111.863 33.3684 111.963 33.1781C112.031 33.0495 112.094 32.9363 112.099 32.926C112.104 32.9209 112.104 32.9569 112.099 33.0083C112.089 33.1421 111.963 33.5434 111.9 33.6411L111.853 33.7183L111.843 33.5691Z" fill="white"/>
<path fill-rule="evenodd" clip-rule="evenodd" d="M113.46 33.0752C113.534 32.8231 113.607 32.5247 113.633 32.4064C113.68 32.1697 113.78 32.0463 113.942 31.9948C114.063 31.9588 114.246 32.0154 114.319 32.108L114.377 32.18L114.497 32.0514C114.785 31.7479 115.068 31.6553 115.314 31.7736C115.649 31.9382 115.723 32.4064 115.565 33.3324C115.45 34.0167 115.314 34.3871 114.927 35.0559C114.628 35.5755 114.539 35.6733 114.309 35.7607C113.984 35.8791 113.686 35.735 113.544 35.3852C113.371 34.9685 113.261 34.1968 113.303 33.7389C113.324 33.6257 113.387 33.3273 113.46 33.0752ZM114.298 33.8109C114.272 33.8366 114.272 33.7903 114.319 33.3427C114.335 33.1678 114.366 33.0341 114.393 33.0238C114.413 33.0135 114.466 32.9723 114.502 32.9363L114.571 32.8643L114.555 32.9569C114.539 33.0804 114.33 33.78 114.298 33.8109Z" fill="white"/>
<path d="M141.464 14.7087C141.297 14.9813 141.187 15.2694 140.972 15.9691C140.747 16.7151 140.653 17.1061 140.616 17.4714C140.574 17.8675 140.6 18.3151 140.674 18.5003C140.899 19.0559 141.574 19.092 141.904 18.5672C142.134 18.1916 142.244 17.6875 142.386 16.3241C142.501 15.1871 142.475 14.7087 142.271 14.3846C142.15 14.1891 142.045 14.1633 141.867 14.2714C141.695 14.3794 141.6 14.4772 141.464 14.7087Z" fill="white"/>
<path d="M139.139 18.5878C139.108 18.7318 139.202 20.1826 139.265 20.5273C139.516 21.8392 139.595 22.1582 139.783 22.6315C139.841 22.7756 139.988 23.0637 140.108 23.2643C140.349 23.6759 140.464 23.7994 141.045 24.2572C141.302 24.4579 141.386 24.5093 141.553 24.5505C142.145 24.7048 142.574 24.4682 143.611 23.4444L144.067 22.9916L144.239 22.6315C144.334 22.436 144.496 22.1479 144.601 21.9987C144.821 21.6695 144.91 21.4328 145.02 20.8412C145.151 20.1363 145.145 19.9408 144.973 19.7762C144.863 19.6733 144.564 19.6785 144.386 19.7813C144.103 19.9511 143.758 20.3987 143.564 20.8514C143.512 20.9749 143.391 21.1653 143.286 21.2939C143.176 21.4277 143.04 21.6489 142.951 21.8392C142.815 22.1273 142.773 22.1839 142.532 22.4257C142.386 22.5749 142.203 22.7395 142.119 22.7961C142.04 22.8527 141.92 22.9556 141.857 23.0174L141.742 23.1357L141.538 22.9711C141.365 22.8322 141.302 22.7601 141.14 22.4926C140.883 22.0707 140.878 22.0604 140.674 21.4328C140.448 20.7486 140.307 20.2341 140.181 19.6322C140.045 18.9736 139.909 18.6186 139.747 18.4643C139.542 18.274 139.375 18.2585 139.228 18.4129C139.197 18.4643 139.15 18.5415 139.139 18.5878Z" fill="white"/>
<path d="M144.402 14.4411C143.8 15.1562 143.375 16.0308 143.082 17.1575C142.794 18.2688 143.124 19.0713 143.862 19.0353C144.103 19.025 144.208 18.9736 144.386 18.7884C144.538 18.6289 144.58 18.454 144.632 17.78C144.658 17.4405 144.737 16.8283 144.805 16.4218C144.873 16.0154 144.967 15.3003 145.025 14.8373C145.109 14.1376 145.114 13.9832 145.062 13.9369C144.994 13.8752 144.967 13.8855 144.774 14.0501C144.711 14.0861 144.548 14.2662 144.402 14.4411Z" fill="white"/>
<path fill-rule="evenodd" clip-rule="evenodd" d="M118.843 39.3158C118.849 39.4135 118.875 39.4598 118.995 39.5627C119.178 39.7222 119.461 39.8148 120.262 39.9794C121.084 40.1492 121.718 40.2109 122.535 40.2058C124.069 40.1955 125.216 40.2418 125.876 40.3344C127.248 40.5299 131.301 41.3531 132.227 41.6206C132.416 41.672 132.814 41.8109 133.112 41.9241C133.416 42.0373 133.934 42.2071 134.27 42.3048C134.866 42.4746 134.971 42.5158 134.955 42.5878C134.945 42.6495 133.641 42.7112 132.788 42.6907C131.85 42.6649 131.416 42.6392 131.039 42.5878C130.793 42.5518 130.782 42.5466 130.84 42.4952C130.997 42.3563 131.028 42.2997 130.976 42.2482C130.944 42.2225 130.761 42.1608 130.562 42.1145C130.363 42.0682 129.976 41.9704 129.703 41.8932C128.478 41.5537 128.216 41.5022 126.551 41.2862C125.928 41.2039 125.148 41.101 124.823 41.0547C122.865 40.7768 120.975 40.6122 120.728 40.6945C120.598 40.7408 120.508 40.8746 120.535 40.9929C120.556 41.101 120.676 41.2141 120.744 41.1936C120.776 41.1833 120.854 41.1936 120.927 41.2141C121.001 41.2347 121.194 41.2759 121.357 41.3016C121.692 41.3582 121.729 41.3685 121.592 41.3994C121.367 41.4457 121.278 41.7183 121.42 41.9138C121.53 42.0579 121.718 42.1453 122.236 42.2894C122.823 42.454 123.268 42.5312 124.493 42.6701C125.033 42.7318 125.818 42.8347 126.242 42.8913C126.666 42.9531 127.321 43.0302 127.703 43.0662C128.735 43.1691 129.222 43.236 129.991 43.3801C131.405 43.6476 131.719 43.6785 132.573 43.6116C132.824 43.591 133.453 43.5858 133.966 43.6064C135.317 43.6476 135.736 43.591 135.987 43.3338C136.233 43.0765 136.233 42.8656 135.987 42.3203C135.867 42.0527 135.788 41.9241 135.657 41.7852C135.448 41.564 135.317 41.5022 134.594 41.2707C134.301 41.1781 133.819 41.0084 133.531 40.9003C133.238 40.7871 132.835 40.6431 132.631 40.5813C132.212 40.4476 130.248 39.9794 129.578 39.8457C129.332 39.7994 128.599 39.645 127.949 39.501C126.122 39.0997 125.624 39.0328 124.572 39.0122C124.221 39.0071 123.436 38.9916 122.828 38.9762C122.221 38.9608 121.477 38.9608 121.174 38.9711C120.87 38.9813 120.425 38.9762 120.173 38.9556C119.927 38.935 119.613 38.9248 119.477 38.9299C119.069 38.9556 118.833 39.0945 118.843 39.3158ZM122.341 41.5125C122.399 41.564 124.556 41.8212 124.593 41.7801C124.609 41.7646 124.551 41.7543 123.362 41.6051H123.352C122.488 41.4971 122.331 41.4765 122.326 41.4971C122.326 41.4971 122.336 41.5074 122.341 41.5125Z" fill="white"/>
<path fill-rule="evenodd" clip-rule="evenodd" d="M111.911 4.8154C111.869 4.94401 111.811 5.15495 111.785 5.27842C111.748 5.45848 111.685 5.5871 111.518 5.85462C110.984 6.69835 110.533 7.73244 110.141 9.03405L110.052 9.32729L109.68 9.54337C109.313 9.75945 109.308 9.75945 109.083 9.74401C108.58 9.708 108.329 9.80575 107.559 10.3562C107.083 10.6958 107.072 10.7009 107.083 10.6083C107.098 10.4437 107.02 10.4746 106.789 10.7112C106.648 10.8553 106.533 10.953 106.444 10.989C106.234 11.0816 106.151 11.2257 106.056 11.6424C105.952 12.1106 105.952 12.2855 106.046 12.4141C106.104 12.4913 106.109 12.5222 106.072 12.5427C106.046 12.5582 105.91 12.6405 105.768 12.7228C105.538 12.8617 105.507 12.8668 105.428 12.8205C105.318 12.7537 105.114 12.8051 104.999 12.9286C104.894 13.0366 104.522 13.7414 104.245 14.3434C104.004 14.8733 103.621 15.9074 103.119 17.3736C102.92 17.9549 102.595 18.881 102.396 19.4263C101.752 21.2115 101.386 22.3845 101.05 23.7016C100.941 24.144 100.736 24.9312 100.6 25.4508C100.464 25.9704 100.218 26.9942 100.05 27.7196C99.8828 28.445 99.7047 29.2115 99.6524 29.4173C99.4481 30.2199 98.7936 32.6328 98.5109 33.6103C97.6573 36.5942 97.296 38.4205 97.317 39.6141C97.3274 40.0257 97.317 40.0874 97.2384 40.1646C97.1389 40.2675 97.1285 40.4012 97.207 40.5247C97.3013 40.6688 97.5735 40.7871 98.1391 40.9363C99.202 41.2193 99.3905 41.2244 100.804 41.0443C100.815 41.0443 100.825 41.1215 100.831 41.2193L100.836 41.3942L100.605 41.4096C100.223 41.4302 100.092 41.5125 100.228 41.636C100.333 41.7337 101.721 42.0939 102.182 42.1453C102.333 42.1607 103.051 42.1607 103.779 42.1453L105.098 42.1144L105.014 42.2894C104.847 42.634 104.941 43.0713 105.245 43.3903C105.407 43.5601 105.438 43.5807 105.7 43.663C105.915 43.7299 106.072 43.7504 106.365 43.7402C106.805 43.7247 108.465 43.8688 109.235 43.982C110.272 44.1414 110.769 44.1466 111.994 44.0077C112.748 43.9254 113.11 43.9305 114.293 44.0591C114.738 44.1054 115.22 44.1569 115.361 44.1723C115.503 44.1877 116 44.2598 116.461 44.3318C116.922 44.4038 117.43 44.4707 117.587 44.4861C117.985 44.5222 118.618 44.5119 119.037 44.4656L119.388 44.4244L119.524 44.5479C119.718 44.7279 120.09 45.2218 120.509 45.8598C120.708 46.1633 120.933 46.4823 121.011 46.5697C121.247 46.8321 121.53 46.9247 121.802 46.8218C121.99 46.7498 122.085 46.6572 122.137 46.4771L122.179 46.3331L122.299 46.3434C123.012 46.4103 123.928 46.3897 124.614 46.2971C125.122 46.225 125.53 46.0193 125.719 45.7312C125.818 45.5768 125.813 45.2887 125.708 45.1189L125.624 44.98L126.122 45.0366C126.394 45.0675 126.871 45.0932 127.18 45.0932C127.949 45.0932 128.379 45.1241 129.248 45.2321C130.62 45.4019 131.013 45.4173 132.06 45.3144C132.866 45.2373 133.39 45.2373 134.453 45.3247C135.94 45.4482 136.553 45.4533 137.301 45.3607C137.464 45.3402 137.61 45.3247 137.637 45.3196C137.658 45.3196 137.689 45.3813 137.705 45.4636C137.783 45.9112 138.108 46.1787 138.522 46.1427C138.747 46.1222 138.899 46.0347 139.071 45.8238C139.228 45.6334 139.265 45.5305 139.396 44.9646C139.506 44.4656 139.668 44.1054 140.16 43.2463C140.658 42.382 140.862 41.9447 141.019 41.4353C141.103 41.1524 141.145 41.0701 141.197 41.0495C141.297 41.0186 141.412 40.8849 141.449 40.7665C141.491 40.6225 141.459 40.4321 141.36 40.18C141.281 39.9845 141.276 39.9022 141.312 39.2951C141.375 38.2096 141.532 37.4379 141.909 36.3421C142.15 35.6424 143.48 32.3241 143.685 31.8971C143.952 31.3517 144.203 30.9504 144.831 30.0758C145.91 28.5633 146.297 27.8328 146.853 26.2533C146.947 25.9807 147.214 25.2501 147.439 24.6328C148.366 22.1119 148.512 21.5099 148.795 19.1125C148.952 17.7903 148.994 17.5331 149.094 17.1987C149.219 16.7768 149.314 16.6019 149.638 16.18C150.167 15.4855 150.371 15.1202 150.528 14.5749L150.612 14.2765L150.806 14.2096C150.963 14.153 151.031 14.1067 151.178 13.9524C151.628 13.4842 151.843 12.8463 152 11.5292C152.068 10.9685 152.173 10.3562 152.272 9.95495C152.403 9.4199 152.408 9.28614 152.314 8.88485C152.199 8.40125 152.125 8.27263 151.759 7.96909C151.539 7.78389 151.387 7.69128 151.089 7.54209C150.685 7.34144 149.455 6.57488 148.842 6.13244C148.214 5.68485 147.737 5.37102 147.182 5.05205C146.03 4.38839 145.947 4.35237 144.512 3.88421C143.386 3.51893 142.711 3.39032 141.585 3.32343C141.286 3.308 140.831 3.27199 140.569 3.25141C140.297 3.22569 139.962 3.22569 139.778 3.25141C139.6 3.27713 139.166 3.308 138.81 3.32858C138.417 3.34916 137.998 3.40061 137.752 3.4572C137.527 3.50864 137.197 3.57552 137.024 3.60639C136.846 3.63726 136.49 3.70929 136.233 3.77102C135.977 3.83276 135.526 3.89964 135.228 3.92536C134.579 3.97681 134.453 4.00768 133.688 4.29064C133.228 4.46041 132.966 4.53244 132.568 4.59417C132.28 4.64048 131.777 4.73823 131.447 4.80511C130.751 4.9543 130.269 5.02633 129.709 5.0572C129.327 5.07778 129.3 5.07263 129.201 4.98003C129.002 4.78967 128.724 4.77938 128.494 4.94916C128.248 5.13437 128.18 5.15495 127.928 5.13437C127.567 5.1035 127.426 5.17038 127.148 5.4945C127.023 5.64369 126.886 5.83405 126.829 5.96266L126.724 6.17874L126.326 6.27135C126.106 6.32279 125.892 6.36395 125.839 6.36395C125.792 6.36395 125.546 6.25591 125.295 6.13244C124.53 5.75173 123.949 5.62311 123.315 5.69514C123.027 5.72601 122.839 5.77231 122.027 6.00897C121.634 6.12215 121.404 6.117 120.755 5.97295C119.776 5.75173 119.404 5.71572 118.231 5.72086C117.513 5.72601 117.435 5.71572 117.089 5.60768C116.885 5.5408 116.492 5.37617 116.21 5.23726C115.309 4.78967 114.916 4.67134 114.141 4.63019C113.775 4.60961 113.581 4.5736 113.434 4.49643C113.23 4.38839 112.822 4.24434 112.659 4.2289C112.329 4.19289 112.041 4.41411 111.911 4.8154ZM107.266 12.1877L107.177 12.7434L107.397 12.5479C107.517 12.4398 107.653 12.3318 107.701 12.3112C107.831 12.2495 107.973 12.2649 108.025 12.3472C108.083 12.4347 107.968 12.8 107.68 13.4225C107.25 14.3639 106.858 15.3723 106.601 16.216C106.412 16.8334 106.292 17.3324 106.009 18.6392C105.742 19.8585 105.564 20.5787 105.072 22.3485C104.878 23.043 104.637 23.9434 104.527 24.3447C104.287 25.245 103.663 27.3286 103.297 28.4501C102.847 29.8186 102.208 31.9691 101.925 33.0649C101.485 34.773 100.537 37.9781 100.265 38.7086C100.181 38.9299 100.113 39.1202 100.113 39.1305C100.113 39.1408 100.16 39.1459 100.223 39.1357C100.286 39.1254 100.385 39.1151 100.454 39.1048C100.522 39.0945 100.731 39.0945 100.93 39.1048L101.286 39.1202L101.48 38.5029C101.585 38.1633 101.763 37.6694 101.873 37.407C102.051 36.98 102.066 36.9234 102.014 36.872C101.946 36.8103 101.925 36.5993 101.983 36.5427C102.003 36.5221 101.993 36.4347 101.967 36.3524C101.914 36.1877 101.941 36.0334 102.04 35.9305C102.129 35.8379 102.15 35.7402 102.333 34.6701C102.422 34.1453 102.532 33.5331 102.579 33.3119C102.716 32.6894 103.051 31.5575 103.37 30.6623C103.826 29.3813 104.072 28.6045 104.433 27.2926C104.852 25.7594 105.297 24.2984 105.878 22.4874C106.13 21.7106 106.554 20.3164 106.826 19.3903C107.837 15.9074 108.156 14.8939 108.821 13.0469C109.025 12.4758 109.298 11.6887 109.429 11.3029C109.633 10.6855 109.648 10.6083 109.57 10.6803C109.198 11.0096 108.9 11.0713 109.198 10.7575L109.303 10.6443L109.078 10.6546C108.926 10.6598 108.832 10.6855 108.79 10.7318C108.664 10.8604 108.13 11.2103 107.758 11.4058C107.549 11.5138 107.376 11.6064 107.371 11.6115C107.355 11.6321 107.313 11.8842 107.266 12.1877ZM105.606 13.69C105.575 13.9318 105.161 15.2694 104.737 16.5299C104.574 17.0135 104.292 17.8623 104.114 18.4231C103.936 18.9839 103.695 19.735 103.574 20.0951C103.019 21.7877 101.501 26.7935 101.365 27.3543C101.281 27.7041 101.124 28.4141 101.009 28.9389C100.506 31.2437 100.145 32.5865 99.5476 34.3922C99.0345 35.9254 98.5109 37.726 98.3328 38.5646C98.2071 39.1511 98.0972 39.9022 98.1338 39.9331C98.1495 39.9485 98.2229 39.964 98.2909 39.9691L98.4218 39.9794L98.3485 39.8816C98.3014 39.8199 98.2752 39.7273 98.2805 39.645C98.2962 39.398 98.4428 39.3106 98.9088 39.29C99.0868 39.2797 99.2492 39.2643 99.2649 39.2488C99.312 39.2025 99.6105 37.9884 99.8828 36.7434C100.024 36.1054 100.239 35.1845 100.37 34.7009C100.501 34.2173 100.721 33.317 100.867 32.6996C101.281 30.9453 101.48 30.2405 102.113 28.1569C102.443 27.0868 102.915 25.4816 103.166 24.5916C103.417 23.6964 103.831 22.3125 104.082 21.5099C104.664 19.6681 104.936 18.7369 105.229 17.5588C105.496 16.4784 105.758 15.6193 105.988 15.0585C106.109 14.7601 106.156 14.5903 106.172 14.3588C106.182 14.189 106.224 13.7877 106.261 13.4636C106.297 13.1395 106.313 12.8823 106.297 12.8874C106.282 12.8926 106.124 13.0315 105.952 13.1961L105.637 13.4945L105.606 13.69ZM113.015 6.0244C112.994 6.0707 112.822 6.39996 112.633 6.75495C112.136 7.68614 111.942 8.15945 111.497 9.53308C111.157 10.5826 110.581 12.2649 110.251 13.1601C109.837 14.2868 109.512 15.2334 109.188 16.2469C108.69 17.7903 106.695 24.2932 106.03 26.5312C105.344 28.836 105.177 29.3556 104.664 30.7704C104.161 32.144 103.831 33.2553 103.574 34.4283C103.313 35.6321 103.182 36.0951 103.051 36.2701C102.998 36.3421 102.962 36.409 102.967 36.4295C102.988 36.4964 105.287 36.9029 106.287 37.0109C107.015 37.0932 107.627 37.1189 109.188 37.1498C111.79 37.2012 113.953 37.4328 115.335 37.8083C115.545 37.8649 115.723 37.9112 115.733 37.9112C115.759 37.9112 116.005 37.1138 115.995 37.0726C115.979 37.016 113.974 36.8257 112.439 36.7279C111.345 36.6611 110.68 36.5839 109.523 36.3884C108.497 36.2186 107.795 36.1312 107.151 36.09C105.978 36.018 105.438 35.8431 105.203 35.4572C105.056 35.2154 105.061 34.9324 105.219 34.7678C105.26 34.7267 105.313 34.6289 105.334 34.5517C105.355 34.4746 105.486 34.135 105.617 33.7903C105.931 32.9929 106.517 31.0482 106.816 29.834C106.941 29.3144 107.146 28.4038 107.271 27.807C107.753 25.4611 108.261 23.5627 109.072 21.0623C109.429 19.9768 110.575 15.964 110.8 15.0328C110.832 14.8939 111.172 13.762 111.549 12.5119C111.926 11.2617 112.293 10.0012 112.356 9.708C112.56 8.79225 112.769 8.23662 113.214 7.4289C113.361 7.16138 113.445 7.04819 113.68 6.80125C113.937 6.52858 113.984 6.49771 114.126 6.45141C114.293 6.39996 114.419 6.42569 114.524 6.51829C114.602 6.59032 114.607 6.90929 114.534 7.17167C114.503 7.27971 114.487 7.37745 114.497 7.39289C114.508 7.40318 114.906 7.48035 115.377 7.55752C115.848 7.63469 116.571 7.76331 116.985 7.83533L117.733 7.96909L117.833 7.8662C117.964 7.73244 118.152 7.66556 118.33 7.69643C118.461 7.717 118.493 7.73758 118.634 7.89192L118.791 8.06684L119.603 8.11315C120.713 8.17488 121.32 8.18003 122.388 8.11829C123.383 8.0617 124.106 8.05141 125.101 8.0617C125.452 8.06684 125.792 8.07199 125.85 8.07199C125.918 8.07199 125.97 8.05141 125.981 8.0154C126.001 7.96909 125.96 7.95881 125.75 7.94337C125.42 7.91765 125.143 7.82504 124.656 7.5781C123.839 7.16138 123.713 7.16138 122.467 7.5318C122.053 7.65527 121.619 7.70157 121.257 7.66556C121.095 7.65012 120.666 7.56781 120.304 7.49064C119.545 7.32601 119.22 7.29514 118.147 7.29514C116.974 7.29514 116.503 7.17681 115.607 6.6572C114.738 6.15302 114.55 6.08099 113.895 6.00382C113.665 5.9781 113.387 5.93694 113.282 5.91122C113.099 5.8752 113.078 5.88549 113.015 6.0244ZM114.052 8.56073C113.979 8.77681 113.817 9.20897 113.691 9.51765C113.445 10.135 113.424 10.1967 112.895 12.0283C112.696 12.7125 112.345 13.9112 112.12 14.6984C111.89 15.4803 111.575 16.6225 111.418 17.2244C110.759 19.7865 110.518 20.6096 110.005 22.081C109.591 23.2797 109.277 24.3086 108.957 25.5382C108.821 26.0578 108.622 26.8193 108.512 27.2205C108.402 27.627 108.214 28.3421 108.093 28.8103C107.701 30.3331 107.502 31.0482 107.303 31.6553C106.905 32.8643 106.737 33.2707 106.271 34.171C106.046 34.6032 105.983 34.7472 105.999 34.8295C106.009 34.9119 105.999 34.9427 105.915 35.0045C105.795 35.0919 105.81 35.1125 106.072 35.1897C106.329 35.2668 106.549 35.2926 107.198 35.3389C107.994 35.3903 108.554 35.4623 109.916 35.6836C111.136 35.8791 111.722 35.9562 112.963 36.0797C113.319 36.1157 114.162 36.234 114.843 36.3421C115.518 36.4501 116.084 36.5324 116.094 36.517C116.105 36.5067 116.142 36.1775 116.173 35.7916C116.204 35.4058 116.246 34.9787 116.262 34.8553C116.299 34.5672 116.524 33.5022 116.702 32.8128C116.89 32.0668 118.042 28.2392 118.456 26.9993C118.775 26.027 119.388 24.3961 119.503 24.1903C119.54 24.1234 119.529 24.0463 119.44 23.8096C119.378 23.6501 119.283 23.3157 119.226 23.0739L119.121 22.6315L118.875 22.4308C118.639 22.2353 118.624 22.2148 118.529 21.9884C118.393 21.654 118.388 21.1858 118.519 20.4244C118.76 19.025 119.226 17.9138 119.755 17.4971C119.87 17.4045 119.885 17.3787 119.885 17.2656C119.885 17.1112 119.959 16.9054 120.048 16.8128C120.158 16.6996 120.393 16.6276 120.613 16.6379C120.729 16.643 120.859 16.6328 120.907 16.607C121.545 16.2932 121.844 16.2006 122.273 16.1749C122.603 16.1543 122.844 16.1955 123.022 16.3138L123.148 16.391L123.357 15.434C123.698 13.8906 123.776 13.6488 124.242 12.6045C124.614 11.771 124.813 11.2771 125.033 10.6083C125.138 10.2894 125.3 9.84176 125.389 9.60511C125.478 9.36845 125.541 9.17295 125.53 9.16781C125.52 9.16266 125.075 9.1781 124.551 9.19868L123.598 9.23983L123.645 9.4199C123.745 9.78517 123.561 10.6289 123.242 11.3234C123.059 11.7247 122.781 12.0334 122.546 12.1106C122.242 12.2135 121.954 12.1517 121.729 11.9408C121.477 11.7093 121.42 11.3955 121.53 10.9119C121.613 10.5569 121.891 9.86234 122.09 9.50221C122.174 9.35816 122.237 9.22955 122.237 9.2244C122.237 9.21411 121.954 9.18839 121.613 9.16266C121.268 9.13694 120.922 9.11122 120.838 9.10607L120.687 9.09064L120.556 9.50736L120.697 9.45077C120.985 9.33244 121.263 9.46106 121.331 9.74916C121.367 9.9035 121.273 10.2585 121.116 10.5517C120.959 10.8398 120.325 11.5395 120.1 11.6681C119.749 11.8739 119.419 11.8533 119.168 11.6218C118.854 11.3286 118.885 10.8758 119.278 10.1247C119.419 9.85205 119.707 9.42504 119.854 9.2707C120.048 9.06491 120.032 9.05463 119.414 9.00832C118.87 8.96717 118.849 8.96717 118.833 9.05463C118.707 10.027 118.383 11.1022 118.11 11.4315C117.953 11.6218 117.796 11.6836 117.618 11.6167C117.299 11.4984 117.267 11.2051 117.482 10.4643C117.697 9.72344 117.864 9.0752 117.838 9.0752C117.828 9.0752 117.765 9.15237 117.707 9.25012C117.545 9.5125 117.246 9.82119 117.1 9.86749C116.843 9.9498 116.649 9.84176 116.639 9.60511C116.634 9.49192 116.655 9.44048 116.738 9.35816C116.796 9.30157 116.922 9.14209 117.021 9.00318C117.173 8.79739 117.194 8.75109 117.152 8.73051C117.121 8.72022 116.869 8.66363 116.592 8.60704C116.314 8.55045 115.738 8.43726 115.319 8.3498C114.901 8.26234 114.476 8.18003 114.382 8.15945C114.288 8.13887 114.204 8.13372 114.199 8.13887C114.194 8.16459 114.131 8.34466 114.052 8.56073ZM127.693 6.56459C127.881 6.95559 127.897 7.15623 127.745 7.36202C127.677 7.45463 127.614 7.49578 127.389 7.5781C127.243 7.63469 127.096 7.70157 127.075 7.72729C127.049 7.75302 126.986 7.87135 126.939 7.98967C126.865 8.16459 126.855 8.23147 126.892 8.3498C126.97 8.58646 126.845 8.85913 126.609 8.97231C126.52 9.01347 126.263 9.62054 125.666 11.2C125.399 11.9048 125.279 12.198 124.802 13.2887C124.535 13.8958 124.415 14.3074 124.174 15.4032C123.792 17.1267 123.745 17.2707 123.352 17.991C122.98 18.6701 122.896 18.8707 122.399 20.2701C122.053 21.2424 121.943 21.4842 121.545 22.1427C121.273 22.5955 120.98 23.1922 120.718 23.8611C120.624 24.0926 120.393 24.6379 120.194 25.0803C119.409 26.8501 119.372 26.9685 118.027 31.8045C117.932 32.144 117.78 32.7974 117.691 33.2604C117.602 33.7234 117.482 34.3099 117.419 34.562C117.288 35.1125 117.225 35.5035 117.157 36.2135L117.105 36.7382L117.346 36.7948C117.644 36.8668 117.78 36.9492 117.744 37.0315C117.712 37.1035 117.623 37.1241 117.288 37.1447L117.032 37.1601L116.911 37.6643C116.754 38.3279 116.707 38.5955 116.639 39.1614C116.576 39.6861 116.466 40.0205 116.251 40.3344C116.173 40.4527 116.105 40.5607 116.105 40.5813C116.105 40.6019 116.157 40.6688 116.225 40.7357C116.341 40.8488 116.367 40.8591 116.718 40.9003C117.189 40.9517 117.377 41.0186 117.498 41.1627C117.613 41.3016 117.613 41.5074 117.503 41.672L117.419 41.7903L117.671 41.991C118.095 42.3254 118.828 42.8913 118.912 42.9427C118.959 42.9685 119.158 43.0045 119.362 43.025C119.796 43.0611 120.121 43.1588 120.378 43.3286C120.655 43.5086 120.729 43.6321 120.681 43.807C120.66 43.8842 120.592 44.0025 120.535 44.0591L120.43 44.1672L121.189 45.1344L121.367 45.1395C121.467 45.1395 121.739 45.1652 121.975 45.191C122.409 45.2424 123.572 45.2321 123.734 45.1807C123.818 45.1549 123.818 45.1498 123.734 45.0984C123.588 45.0109 122.912 44.5016 122.425 44.1106C122.163 43.8996 121.404 43.2257 120.671 42.5517C119.294 41.281 119.048 41.0238 118.676 40.4476C118.592 40.3189 118.514 40.2109 118.503 40.2109C118.493 40.2109 118.44 40.2829 118.383 40.3755C118.257 40.5762 118.142 40.6533 118.027 40.6122C117.911 40.5762 117.906 40.5041 118.016 40.5196C118.095 40.5299 118.095 40.5196 118.032 40.3807C117.985 40.2726 117.974 40.1492 117.99 39.9485C118.006 39.7942 118.027 39.3209 118.032 38.899C118.053 37.8443 118.079 37.5665 118.199 37.1755C118.257 36.9903 118.351 36.5993 118.414 36.3061C118.655 35.1588 118.739 34.917 119.079 34.3099C119.341 33.8521 119.362 33.7697 119.482 32.9569C119.587 32.2623 119.723 31.7016 119.865 31.4032C119.912 31.3106 120.037 31.0996 120.147 30.9299C120.414 30.5286 120.524 30.2456 120.791 29.2424C121.142 27.9408 121.226 27.7041 121.818 26.3665C121.896 26.1916 122.174 25.3376 122.436 24.4681C122.697 23.5987 123.012 22.6366 123.132 22.3382C123.389 21.6951 123.478 21.4225 123.682 20.589C123.991 19.344 124.263 18.6598 124.823 17.7337C125.19 17.1267 125.415 16.6791 125.766 15.8713C126.096 15.1048 126.593 13.9678 126.824 13.4533C126.918 13.2424 127.085 12.8051 127.195 12.481C127.311 12.1569 127.504 11.6218 127.635 11.2926C127.829 10.7987 127.871 10.6598 127.866 10.4797C127.86 10.1916 128.049 9.59996 128.41 8.77681C128.573 8.41154 128.73 8.02569 128.766 7.92794C128.85 7.66556 128.782 6.95044 128.63 6.52858C128.567 6.34852 128.504 6.20446 128.499 6.20961C128.489 6.20961 128.394 6.24562 128.279 6.29192C128.169 6.33308 128.002 6.36909 127.913 6.36395C127.729 6.34337 127.63 6.43083 127.693 6.56459ZM129.222 6.19932C129.243 6.23533 129.295 6.28163 129.332 6.30221C129.368 6.32279 129.478 6.45655 129.573 6.60061C129.667 6.74466 129.751 6.85784 129.756 6.85784C129.766 6.85784 129.824 6.83726 129.882 6.81668C129.944 6.7961 130.295 6.72408 130.667 6.6572C131.929 6.43598 132.573 6.27649 133.353 5.99353C134.243 5.67456 134.38 5.64369 135.149 5.57681C136.102 5.4945 136.228 5.47392 136.883 5.33501C137.689 5.16009 138.15 5.10864 138.558 5.1498C139.286 5.21668 141.307 5.5871 142.37 5.84434C142.627 5.90607 143.03 6.00382 143.266 6.05527C144.271 6.28163 144.58 6.40511 145.889 7.12536C146.35 7.37745 147.004 7.72729 147.345 7.90221C148.188 8.33437 148.617 8.59675 149.177 9.03405C149.439 9.23469 149.79 9.49707 149.958 9.6154C150.125 9.73372 150.335 9.88292 150.424 9.94466C150.513 10.0115 150.591 10.0527 150.596 10.0424C150.659 9.86234 150.795 9.21926 150.774 9.18324C150.764 9.15752 150.633 9.0752 150.486 8.99803C150.34 8.92086 150.12 8.80254 150 8.7408C149.79 8.62762 149.303 8.27263 148.193 7.41347C147.654 6.99675 147.188 6.67263 146.47 6.2199C146.214 6.06041 145.889 5.84434 145.748 5.74144C145.517 5.57681 145.428 5.53565 144.842 5.35559C144.486 5.24241 143.999 5.07263 143.763 4.97488C142.962 4.64562 142.674 4.58389 141.166 4.42954C140.192 4.3318 140.124 4.32665 139.689 4.38324C139.506 4.40897 139.166 4.43469 138.935 4.45012C138.705 4.46556 138.27 4.52729 137.966 4.58903C137.663 4.65077 137.254 4.72794 137.061 4.7588C136.867 4.78967 136.542 4.84626 136.343 4.88228C136.139 4.91829 135.752 4.95945 135.479 4.97488C134.846 5.00575 134.699 5.04176 134.149 5.27327C133.594 5.50479 133.285 5.59739 132.699 5.68999C132.447 5.73115 131.981 5.82376 131.662 5.90093C130.735 6.117 130.023 6.18389 129.405 6.12215C129.29 6.11186 129.185 6.10671 129.18 6.117C129.185 6.12215 129.201 6.15816 129.222 6.19932ZM129.808 7.99482C129.803 8.05655 129.756 8.31379 129.693 8.57102C129.636 8.82826 129.515 9.34273 129.431 9.71829C129.238 10.5775 129.117 10.845 128.834 11.0096C128.73 11.0713 128.698 11.1279 128.463 11.7247C128.049 12.7845 127.703 13.5717 127.274 14.4514C127.054 14.9041 126.75 15.5627 126.609 15.9074C126.138 17.0289 125.902 17.5228 125.598 18.0321C125.069 18.917 124.886 19.4006 124.499 20.9543C124.342 21.5768 124.211 21.9781 123.949 22.6212C123.839 22.8939 123.556 23.7324 123.321 24.4887C122.849 26.0012 122.697 26.4077 122.367 27.0662C122.142 27.5086 121.849 28.2289 121.87 28.2958C121.875 28.3164 121.917 28.3061 121.964 28.2752C122.069 28.2083 122.718 27.9254 122.943 27.8482C123.284 27.735 124.09 27.3389 124.368 27.1485C124.525 27.0405 124.771 26.881 124.912 26.7935L125.174 26.6289L125.038 26.4694C124.808 26.2019 124.452 25.6308 124.347 25.3479C124.221 25.0135 124.205 24.6945 124.305 24.2726C124.425 23.7582 124.525 23.5832 124.766 23.4752L124.776 23.4701C124.86 23.434 124.897 23.4186 124.897 23.4032C124.897 23.3877 124.87 23.3723 124.829 23.3466L124.823 23.3414C124.687 23.2591 124.53 22.9762 124.52 22.7807C124.504 22.5697 124.619 22.4308 124.85 22.3794L125.001 22.3485L125.038 22.0861C125.101 21.6694 125.279 21.1395 125.572 20.5016C125.724 20.1723 125.96 19.5807 126.106 19.1794C126.473 18.1453 126.583 17.8881 126.996 17.0598C127.468 16.1183 127.557 15.9691 127.792 15.7221C128.065 15.434 128.321 15.3003 128.792 15.2025C129.002 15.1562 129.201 15.1048 129.238 15.0842C129.279 15.0585 129.358 14.8578 129.484 14.4411C129.688 13.762 129.808 13.5151 130.091 13.2167C130.363 12.9337 130.489 12.8566 131.107 12.6302C131.997 12.3009 132.086 12.2083 132.379 11.3183C132.479 11.025 132.599 10.7009 132.646 10.598C132.924 10.0064 133.285 9.79032 134.285 9.61025C135.097 9.4662 135.259 9.38389 135.94 8.7871C136.176 8.58131 136.642 8.19546 136.977 7.93308C137.312 7.6707 137.757 7.31572 137.972 7.14594C138.553 6.68807 138.872 6.52858 139.511 6.37424C139.663 6.33823 139.789 6.29707 139.789 6.28678C139.789 6.24048 138.275 6.09128 138.082 6.117C137.966 6.13244 137.647 6.19932 137.364 6.27135C136.684 6.44112 136.338 6.49771 135.61 6.53887C134.751 6.59032 134.542 6.63147 133.641 6.94016C132.458 7.34659 131.395 7.59353 130.463 7.67585C130.143 7.70672 129.918 7.76331 129.855 7.83533C129.829 7.87135 129.814 7.93308 129.808 7.99482ZM102.38 38.4C102.281 38.863 102.202 39.254 102.213 39.2694C102.239 39.3209 103.025 39.3466 103.564 39.3157C104.323 39.2746 104.847 39.3106 105.795 39.4701C106.255 39.5472 106.8 39.6244 107.009 39.6398C107.58 39.6861 108.491 39.6707 109.722 39.609C110.329 39.5781 111.193 39.5318 111.638 39.5112C112.649 39.4649 113.167 39.4135 114.052 39.2643C114.434 39.2025 114.859 39.1511 114.984 39.1562C115.44 39.1665 115.686 39.3466 115.686 39.6707V39.8405L115.749 39.7376C115.848 39.5832 115.848 39.4701 115.77 38.9556L115.696 38.4823L115.278 38.4668C115.047 38.4566 114.414 38.4205 113.874 38.3742C112.691 38.2816 112.418 38.2713 110.9 38.2508C108.46 38.2199 107.842 38.1942 106.92 38.0964C106.412 38.0398 105.391 37.8598 104.622 37.6951C104.025 37.5665 103.951 37.5562 103.967 37.6231C103.988 37.726 103.925 37.7209 103.794 37.6025C103.731 37.5511 103.606 37.4791 103.512 37.4482C103.349 37.3916 103.333 37.3967 103.25 37.4842C103.098 37.6437 102.778 37.6746 102.637 37.5459C102.616 37.5254 102.59 37.5202 102.579 37.5305C102.569 37.5459 102.48 37.9369 102.38 38.4ZM120.561 18.881C120.43 19.0713 120.273 19.4469 120.158 19.8482C119.964 20.5016 119.807 21.2321 119.807 21.4842C119.807 21.7157 119.995 22.9967 120.032 22.9967C120.043 22.9967 120.153 22.791 120.278 22.544C120.404 22.2971 120.603 21.9421 120.723 21.7569C121.32 20.8308 121.383 20.7022 121.886 19.3594C122.2 18.5157 122.53 17.7543 122.619 17.6617C122.64 17.6411 122.671 17.5845 122.692 17.5331L122.729 17.4405H122.561C122.32 17.4456 121.865 17.6103 121.645 17.7697C121.477 17.8984 120.666 18.7267 120.561 18.881ZM101.804 40.8437C101.768 40.9826 101.742 41.1061 101.747 41.1112C101.752 41.1164 101.825 41.1009 101.909 41.0803C102.255 40.9775 103.255 40.8746 104.124 40.854C104.637 40.8437 105.046 40.8231 105.041 40.818C105.02 40.7974 104.616 40.7202 104.37 40.6894C104.239 40.6739 103.915 40.6585 103.648 40.6636C103.061 40.6688 102.689 40.6431 102.25 40.5813C102.066 40.5556 101.904 40.5453 101.894 40.5659C101.883 40.5762 101.841 40.7048 101.804 40.8437ZM133.631 11.7299C133.416 12.4604 133.29 12.7074 132.976 13.0315C132.652 13.371 132.275 13.5717 131.62 13.762C131.458 13.8083 131.264 13.8855 131.18 13.9369C131.044 14.0193 131.023 14.045 130.934 14.2456C130.882 14.3639 130.787 14.6726 130.725 14.9299C130.589 15.4958 130.499 15.717 130.311 15.9485C130.065 16.2469 129.74 16.4012 129.18 16.4836C128.829 16.535 128.667 16.6019 128.567 16.7511C128.337 17.0855 127.656 18.4437 127.3 19.2823C127.085 19.7916 126.813 20.3678 126.703 20.5633C126.07 21.6437 125.996 21.8032 125.876 22.3176C125.782 22.7241 125.755 22.8218 125.792 22.8578C125.803 22.8681 125.823 22.8733 125.844 22.8784C125.954 22.9093 125.939 22.971 125.808 23.0019C125.719 23.0225 125.693 23.0482 125.604 23.1974C125.535 23.3054 125.415 23.4392 125.274 23.5678L125.048 23.7685L125.138 24.2675C125.185 24.5453 125.258 24.8385 125.295 24.9209C125.331 25.0032 125.478 25.2244 125.619 25.4045C125.912 25.78 125.933 25.7903 126.138 25.6566C126.536 25.3942 127.436 24.2006 128.347 22.7189C128.468 22.5234 128.751 22.1324 128.97 21.8598L128.991 21.834C129.164 21.618 129.264 21.4945 129.342 21.3659C129.442 21.2064 129.52 21.0315 129.688 20.6353L129.704 20.5993C129.861 20.234 130.117 19.8585 130.321 19.699C130.395 19.6373 130.583 19.5035 130.735 19.4006C131.07 19.1691 131.112 19.1125 131.358 18.5414C131.845 17.4148 132.039 17.1369 132.662 16.6842C133.086 16.3755 133.374 16.0823 133.505 15.825C133.558 15.7221 133.709 15.3672 133.835 15.043C133.966 14.7189 134.186 14.2302 134.327 13.9524C134.469 13.6797 134.641 13.3144 134.715 13.1395C134.867 12.7691 135.123 12.3472 135.322 12.1363C135.401 12.054 135.594 11.8791 135.752 11.7504C136.008 11.5344 136.066 11.4675 136.348 11.0765C137.029 10.1196 137.5 9.64112 138.16 9.23469L138.396 9.09064C138.527 9.00832 138.652 8.93115 138.726 8.88485C139.035 8.6945 139.433 8.36009 139.584 8.15945C139.71 7.99996 139.71 7.98453 139.637 7.98453C139.422 7.97938 139.239 8.09257 138.715 8.53501C138.438 8.77167 137.956 9.15237 137.652 9.3736C137.349 9.59482 137.003 9.8572 136.877 9.95495C136.024 10.6289 135.542 10.8398 134.631 10.9273C134.175 10.9685 133.887 11.0199 133.851 11.0611C133.835 11.0713 133.736 11.3749 133.631 11.7299ZM106.014 42.2791C106.077 42.3408 106.151 42.418 106.172 42.454C106.203 42.5054 106.245 42.5106 106.381 42.4797C106.475 42.4591 106.784 42.454 107.072 42.4694C107.36 42.4849 107.842 42.5054 108.14 42.5106C108.439 42.5157 109.015 42.562 109.423 42.6083C110.387 42.7164 110.711 42.7164 111.586 42.6083C112.466 42.5003 113.12 42.49 114.152 42.5672C114.586 42.598 115.225 42.6443 115.571 42.6701C116.1 42.7061 117.021 42.8141 117.236 42.8656C117.351 42.8913 117.288 42.8244 116.964 42.5672C116.786 42.4231 116.534 42.2122 116.409 42.099L116.178 41.8881L113.44 41.9498C111.932 41.9858 109.617 42.0476 108.292 42.0836L105.884 42.1556L106.014 42.2791ZM141.36 6.66234C141.328 6.73437 141.375 6.74466 141.648 6.7035C141.794 6.68292 141.904 6.6572 141.899 6.65205C141.894 6.64691 141.784 6.62118 141.658 6.59546C141.443 6.5543 141.402 6.56459 141.36 6.66234ZM137.668 11.1176C137.616 11.1845 137.438 11.4263 137.275 11.6527C137.024 12.0025 136.914 12.1312 136.521 12.5119C136.228 12.8 136.019 13.0263 135.95 13.1344C135.772 13.4019 135.259 14.7138 135.071 15.3775C134.867 16.0977 134.741 16.4167 134.537 16.7459C134.343 17.0495 133.992 17.389 133.531 17.7131C133.055 18.0476 132.903 18.2739 132.615 19.0971C132.337 19.8842 132.144 20.162 131.589 20.553C131.206 20.8205 131.185 20.8463 131.023 21.3967C130.845 21.9935 130.761 22.1324 130.217 22.8167C129.787 23.3569 129.74 23.4238 129.803 23.4495C130.065 23.5524 130.175 23.7324 130.154 23.9794L130.143 24.0771C130.133 24.1286 130.107 24.2109 130.107 24.2109C130.107 24.2109 130.096 24.2263 130.007 24.3138C129.934 24.391 129.84 24.7459 129.683 25.5845C129.499 26.5414 129.494 26.6855 129.662 27.1845C129.751 27.4469 129.772 27.6218 129.793 28.1826C129.808 28.5582 129.829 29.0675 129.845 29.3144C129.866 29.6694 129.85 29.8546 129.777 30.2148C129.725 30.4617 129.641 30.863 129.594 31.1048C129.421 31.9434 129.269 32.3344 128.672 33.4508C128.536 33.708 128.305 34.1865 128.164 34.5106C128.023 34.8347 127.839 35.2411 127.745 35.416C127.656 35.591 127.583 35.7402 127.583 35.7504C127.583 35.7607 127.74 35.771 127.939 35.7762C129.018 35.8019 129.766 35.8122 130.374 35.807C131.285 35.8019 131.782 35.8482 132.835 36.0283C133.322 36.1157 133.992 36.2186 134.317 36.2649C135.165 36.3832 135.521 36.4553 136.102 36.6302C136.385 36.7125 136.93 36.872 137.312 36.9852C137.694 37.0932 138.16 37.2527 138.349 37.3402C138.663 37.4842 138.71 37.5202 139.213 37.9472C139.506 38.1942 139.747 38.4 139.752 38.4051C139.757 38.4103 139.783 38.2662 139.81 38.0913C139.967 37.016 140.223 36.198 141.072 34.0681C141.354 33.3582 141.585 32.7717 141.585 32.7614C141.585 32.7511 141.496 32.7408 141.391 32.7357C141.098 32.7202 140.684 32.5916 140.045 32.3138C139.726 32.1749 139.218 31.964 138.909 31.8405C138.349 31.6193 137.49 31.1511 136.924 30.7601C136.595 30.5337 135.081 29.0881 134.73 28.6611C134.38 28.2392 133.699 27.3337 133.385 26.8707C132.929 26.1967 132.725 25.7852 132.416 24.9054C132.343 24.6894 132.269 24.5144 132.254 24.5144C132.227 24.5144 132.049 25.2913 132.107 25.7749C132.212 26.7112 132.437 27.5447 132.751 28.1363C132.908 28.4398 133.243 28.9543 133.599 29.4379C134.338 30.4514 136.228 32.643 136.898 33.2604L137.165 33.5074L137.265 33.4611C137.417 33.389 137.663 33.4405 138.317 33.6771C139.506 34.1093 140.747 34.0681 141.124 33.7389C141.239 33.636 141.187 33.7646 141.113 33.9344C141.061 34.063 140.993 34.2122 140.977 34.3202C140.977 34.3202 140.867 34.6032 140.627 34.6032C140.522 34.6032 140.082 34.6598 139.71 34.7061C139.412 34.7421 139.16 34.7781 139.155 34.773C139.139 34.7627 139.113 34.7832 139.087 34.8244C139.003 34.9685 138.165 34.8656 137.574 34.634C136.118 34.0681 134.175 32.3498 132.563 30.1993C131.693 29.0418 131.29 28.1723 131.086 26.989C130.908 25.9549 131.055 24.6173 131.149 24.0977C131.254 23.5267 131.494 23.1768 131.85 23.0688C132.138 22.9813 132.416 23.1151 132.495 23.3826C132.526 23.5009 132.542 23.5112 132.641 23.5421C132.851 23.6038 132.919 23.7067 133.317 24.6225C133.421 24.8694 133.783 25.4559 133.783 25.4559C133.741 25.5022 133.887 25.7286 134.421 26.4694C135.291 27.6681 135.364 27.7556 136.5 28.8051L137.506 29.7414L138.244 30.153C139.035 30.5903 139.113 30.6315 139.899 30.9402C140.176 31.0482 140.647 31.2437 140.946 31.3723C141.538 31.6295 141.784 31.7119 141.93 31.7016C142.025 31.6964 142.03 31.6861 142.197 31.3414C142.527 30.6521 142.789 30.225 143.507 29.2167C143.459 29.227 143.407 29.2424 143.349 29.2527C143.14 29.3196 142.061 29.5768 141.841 29.5871C141.517 29.6025 141.391 29.5871 140.998 29.4688C140.747 29.3916 140.255 29.2167 139.904 29.0726C139.307 28.8257 139.255 28.8 138.909 28.5222C138.71 28.3627 138.464 28.1826 138.364 28.126C138.244 28.0591 138.066 27.8996 137.841 27.6733C137.652 27.4829 137.233 27.0559 136.909 26.7267C136.49 26.3048 136.259 26.0424 136.113 25.8315C136.003 25.6668 135.757 25.3273 135.579 25.0701C135.17 24.499 135.066 24.3086 134.867 23.7633C134.547 22.8939 134.249 21.1961 134.359 20.8514C134.411 20.6765 134.552 20.5787 134.725 20.5787C134.84 20.5787 134.877 20.6045 134.977 20.7125C135.113 20.872 135.448 21.5614 135.767 22.3382C136.28 23.5884 136.333 23.6913 136.741 24.1543C136.883 24.3189 137.118 24.607 137.26 24.7974C137.616 25.2707 139.061 26.7112 139.469 26.9942C139.752 27.1897 139.904 27.2977 140.071 27.38C140.27 27.4778 140.49 27.5344 140.967 27.6578L141.81 27.8791L142.067 27.807C142.208 27.7659 142.59 27.663 142.915 27.5807C143.239 27.4984 143.569 27.3955 143.637 27.3594C143.831 27.0868 145.009 25.672 145.323 25.3016L145.329 25.2964C145.36 25.2604 145.381 25.2295 145.392 25.2193C145.538 25.0443 145.58 24.998 145.622 24.998C145.727 24.7048 145.842 24.391 145.947 24.108C146.549 22.4823 146.816 21.582 146.968 20.7022C147.088 20.018 147.13 19.699 147.329 18.0424C147.491 16.6739 147.748 16 148.392 15.2025C148.56 14.9967 148.586 14.9453 148.591 14.8218C148.596 14.7447 148.617 14.5594 148.643 14.4154C148.664 14.2868 148.685 14.0347 148.696 13.8238C148.669 13.7003 148.633 13.5768 148.596 13.4739L148.203 12.7948L148.067 12.6353C147.79 12.3009 146.989 10.917 146.894 10.6598C146.889 10.1556 146.674 9.88807 146.465 9.62569C146.24 9.34273 146.02 9.07006 146.062 8.50929C146.041 8.499 146.036 8.46813 146.041 8.43212C145.831 8.29835 145.591 8.14401 145.386 8.02054C145.062 7.8199 144.611 7.54208 144.386 7.40318C144.077 7.20768 143.91 7.12536 143.685 7.05848C143.266 6.92987 143.229 6.92987 143.208 7.02762C143.182 7.15109 143.03 7.23855 142.663 7.34144C142.093 7.50093 141.752 7.63983 141.595 7.76845C141.511 7.84048 141.302 8.09771 141.093 8.37553C140.81 8.76138 140.658 8.9363 140.359 9.22954C139.93 9.64627 139.668 9.82633 138.993 10.1402C138.773 10.2431 138.511 10.382 138.412 10.4437C138.202 10.5775 137.825 10.9221 137.668 11.1176ZM149.151 11.4109C149.172 11.5189 149.172 11.6167 149.156 11.7093C148.868 11.3852 148.617 11.0302 148.528 10.809C148.507 10.7524 148.35 10.3614 148.172 9.89836C148.251 9.97038 148.334 10.0424 148.418 10.1196C148.779 10.4488 149.104 10.7267 149.136 10.7369C149.183 10.7524 149.188 10.809 149.151 10.9787C149.13 11.0971 149.13 11.2926 149.151 11.4109ZM121.467 29.6951C121.263 30.5131 121.137 30.8012 120.671 31.5267C120.472 31.8353 120.378 32.1646 120.231 33.0598C120.09 33.9189 120.032 34.1093 119.802 34.4746C119.707 34.6289 119.582 34.8501 119.524 34.9685C119.409 35.2051 119.21 35.8996 119.236 35.9511C119.247 35.9665 119.419 35.9614 119.618 35.9305C120.043 35.8688 120.901 35.8533 122.776 35.8636C123.514 35.8688 124.274 35.8688 124.462 35.8585L124.813 35.8482L124.661 35.7093C124.305 35.3749 124.3 34.7678 124.656 33.2758C125.001 31.8148 125.001 31.3929 124.64 30.6418C124.457 30.2508 124.216 29.9369 123.86 29.6077L123.572 29.3402L123.279 29.407C122.713 29.5408 121.896 29.4842 121.697 29.299C121.65 29.2578 121.608 29.2321 121.598 29.2424C121.587 29.2476 121.53 29.4533 121.467 29.6951ZM113.665 40.782C114.01 40.782 114.482 40.782 114.712 40.782C114.942 40.782 115.115 40.7665 115.094 40.7459C115.073 40.7254 115.016 40.607 114.969 40.4836C114.921 40.3601 114.874 40.2572 114.869 40.2521C114.864 40.2469 114.618 40.3241 114.325 40.4167C114.026 40.5093 113.623 40.6225 113.429 40.6688C113.23 40.7151 113.063 40.7562 113.052 40.7665C113.047 40.7768 113.319 40.782 113.665 40.782ZM125.085 28.9646C125.703 29.6231 126.211 30.5389 126.337 31.2488C126.436 31.8199 126.373 32.5865 126.138 33.4713C126.017 33.9292 125.677 35.0045 125.572 35.2566C125.53 35.3646 125.52 35.4418 125.546 35.4984C125.583 35.5755 125.577 35.591 125.452 35.6939L125.321 35.807L125.834 35.7916C126.117 35.7865 126.352 35.7659 126.363 35.7453C126.373 35.7299 126.41 35.5858 126.447 35.4263C126.839 33.7852 127.101 32.9877 127.531 32.1492C127.803 31.6193 127.897 31.326 128.086 30.3794C128.222 29.7003 128.243 29.5357 128.222 29.2115C128.19 28.7434 128.18 28.4707 128.185 28.1414C128.19 27.982 128.154 27.7813 128.096 27.6064C128.044 27.4521 127.986 27.2205 127.96 27.0971C127.939 26.9685 127.913 26.8656 127.908 26.8656C127.902 26.8656 127.771 26.9633 127.62 27.0816C127.232 27.38 126.981 27.5138 126.373 27.7453C125.981 27.8945 125.797 27.982 125.656 28.0951C125.2 28.4501 124.912 28.6662 124.87 28.6868C124.85 28.6971 124.907 28.7742 125.085 28.9646ZM118.927 37.1086C118.843 37.3916 118.786 37.6385 118.796 37.654C118.807 37.6694 118.927 37.6643 119.063 37.6385C119.404 37.5768 121.854 37.4688 122.483 37.4894C123.519 37.5202 124.326 37.5974 125.902 37.8238C126.394 37.8906 127.295 37.9987 127.913 38.0604C130.342 38.3022 131.395 38.4566 133.139 38.8321C135.128 39.2643 135.809 39.4546 136.584 39.8148C137.857 40.4013 138.621 40.9877 138.982 41.6617C139.035 41.7594 139.092 41.8418 139.103 41.8418C139.145 41.8418 139.396 41.245 139.485 40.9517C139.579 40.6328 139.647 40.1903 139.653 39.8611L139.658 39.6347L138.186 38.2662L137.883 38.1273C137.715 38.0501 137.343 37.9215 137.05 37.8392C136.757 37.7569 136.259 37.6128 135.94 37.5151C135.244 37.3041 135.055 37.2681 134.086 37.1344C133.673 37.0778 133.133 36.9955 132.887 36.944C131.494 36.6611 131.018 36.6096 130.227 36.6508C129.641 36.6816 128.787 36.6765 127.86 36.6353C126.913 36.5942 126.263 36.5942 125.64 36.6405C124.609 36.7176 122.54 36.6971 120.608 36.5839C120.32 36.5685 119.854 36.5633 119.577 36.5736L119.069 36.5942L118.927 37.1086ZM118.681 38.8373C118.66 39.0379 118.639 39.3003 118.639 39.4238L118.634 39.645L119.309 40.1955C119.681 40.499 120.299 41.0289 120.687 41.3685C121.922 42.4591 124.095 44.2906 124.153 44.2958C124.158 44.2958 124.179 44.2495 124.195 44.1877C124.242 44.0128 124.446 43.9048 124.776 43.8739C124.87 43.8636 125.242 43.8739 125.604 43.8996C125.965 43.9202 126.687 43.9357 127.206 43.9305C128.112 43.9202 128.829 43.9717 129.625 44.1054C130.4 44.234 131.039 44.2752 132.154 44.2546C133.285 44.234 133.987 44.2598 134.72 44.3421C135.804 44.4656 137.013 44.4758 137.658 44.373L137.898 44.3369L138.055 43.9202C138.328 43.2 138.38 42.9993 138.37 42.6495C138.354 42.0784 138.176 41.7646 137.589 41.2707C137.228 40.962 136.746 40.6894 136.202 40.4733C135.678 40.2675 135.364 40.1903 133.935 39.9331C133.516 39.8559 132.851 39.7324 132.458 39.6553C131.217 39.4135 129.918 39.2231 127.876 38.9865C127.321 38.9196 126.525 38.8167 126.101 38.7549C125.085 38.6058 124.488 38.5389 123.509 38.4771C122.383 38.4 122.022 38.3948 120.262 38.4411L118.723 38.4771L118.681 38.8373ZM150.288 13.3504L150.298 13.4533L150.303 13.3504C150.308 13.2578 150.303 13.2218 150.282 13.2424C150.282 13.2476 150.282 13.299 150.288 13.3504ZM124.781 44.8514C124.797 44.8617 124.818 44.8617 124.834 44.8463C124.85 44.8308 124.839 44.8154 124.818 44.8103C124.797 44.8051 124.776 44.8051 124.766 44.8154C124.76 44.8257 124.771 44.8411 124.781 44.8514Z" fill="white"/>
</svg>
